<?xml version="1.0" encoding="utf-8"?>
<!-- Generator: Adobe Illustrator 23.0.5, SVG Export Plug-In . SVG Version: 6.00 Build 0)  -->
<svg version="1.1" id="Capa_1" xmlns="http://www.w3.org/2000/svg" xmlns:xlink="http://www.w3.org/1999/xlink" x="0px" y="0px"
	 viewBox="0 0 841.9 595.3" style="enable-background:new 0 0 841.9 595.3;" xml:space="preserve">
<style type="text/css">
	.st0{fill:#424242;}
	.st1{fill:#AD202A;}
</style>
<g>
	<path class="st0" d="M541.1,60.6c10.1,3.1,13.1,10.5,13,20.2c-0.2,23.8-0.1,47.7-0.1,71.5c0,1.8,0,3.6,0,6.2c2.1,0,3.9,0,5.6,0
		c20.7,0,41.3,0,62,0c12.4,0,18.1,5.4,18.3,17.8c0.3,20.3,0.1,40.7,0,61c0,3.7-1.1,7.3-5.8,7.2c-4.8-0.1-5.2-3.6-5.2-7.4
		c0-20,0-40,0-60c0-6.5-1.1-7.8-7.4-7.9c-21.7-0.1-43.3,0-65,0c-0.6,0-1.3,0.3-2.2,0.4c0,7.5,0,14.9,0,22.9c2.2,0,4.2,0,6.1,0
		c13.3,0,26.7,0,40,0c8.5,0,12.2,3.5,12.5,12.1c0.2,7.8,0.2,15.7,0,23.5c-0.2,8.5-4.1,12.3-12.8,12.4c-13.3,0.1-26.7,0-40,0
		c-1.8,0-3.6,0-5.8,0c0,6.9,0,13.4,0,20.4c2.2,0.2,4.4,0.4,6.5,0.4c12.8,0,25.7-0.1,38.5,0c9.7,0,13.6,4,13.6,13.6
		c0,6.7,0,13.3,0,20c0,11-3.6,14.5-14.7,14.5c-14.5,0-29,0-43.8,0c0,6.9,0,13.5,0,20.9c9.3,0,18.6,0,27.8,0c6.3,0,12.7-0.1,19,0
		c7.7,0.2,11.4,3.5,11.7,11.3c0.3,8.5,0.4,17,0,25.5c-0.3,7.9-4.5,11.2-13.4,11.3c-13.2,0.1-26.3,0-39.5,0c-1.8,0-3.6,0-5.6,0
		c0,6.8,0,13,0,19.7c24.6,0,49.3,0,74.6,0c0-1.9,0-3.9,0-5.8c0-41.5,0-83,0-124.5c0-3.4-0.4-7,4.5-7.5c4.2-0.4,6.5,2.1,6.5,7.4
		c0.1,7.7,0,15.3,0,23c0,15,0.1,30-0.1,45c0,2.7,0.6,4.2,3.4,5c7,2,12.1,6.5,16.5,12.3c1.5,2,3.9,3.6,6.3,4.4
		c17.2,5.4,26.8,21.9,21.8,39.1c-1.5,5.1,0,8.6,3.1,12c0,8.7,0,17.3,0,26c-4.2,7.6-10.4,10.2-19.2,10.1
		c-105.5-0.3-211-0.2-316.5-0.2c-1.8,0-3.6,0-5.3,0c7.9-5.7,14.9-11.4,25.9-11.3c98.7,0.5,197.3,0.3,296,0.3c8.2,0,8.2,0,8.2-8
		c0-3.5-0.2-7,0-10.5c0.2-3.5-1.5-4.8-4.7-5c-1.8-0.1-3.7-0.1-5.5-0.1c-87,0-174,0-261,0c-2.1,0-4.3,0-6.8,0
		c6.6-10.9,16.3-13,28.4-10.9c-2-12.7-0.1-23.4,10.4-31.4c0,10.1,0,20.2,0,30.9c13.3,0,26,0,39.1,0c0-20.1,0-40.2,0-60.8
		c-7,0-14,0-21.8,0c1.5-3.4,2.5-6.2,4-8.7c0.8-1.2,2.7-2.4,4.1-2.5c5.3-0.3,10.7-0.2,16,0c6.3,0.1,8.8,2.4,8.9,8.8
		c0.3,18.3,0.3,36.7,0.4,55c0,2.5,0,5,0,7.9c17.2,0,34,0,51.4,0c0-1.9,0-3.6,0-5.4c0-103.6,0-207.3,0-310.9
		c0-9.6-0.6-10.2-10.1-10.2c-48.2,0-96.3,0-144.5,0c-8.1,0-9.1,1-9.1,9.2c0,13.3,0,26.7,0,40c0,1.7,0.5,3.6-0.3,4.9
		c-1.2,2.1-3.1,5-4.8,5.1c-1.8,0.1-4-2.6-5.4-4.5c-0.8-1.2-0.6-3.2-0.6-4.9c0-13.7-0.1-27.3,0-41c0-12,2.8-15.9,13.9-20
		C435.1,60.6,488.1,60.6,541.1,60.6z M640.3,399.3c10.1,0,19.8,0,29.4,0c5.2,0,7.5-2,8.4-7.2c2.2-11.7-4.8-22.4-16.6-24.2
		c-5.2-0.8-8.4-3-10.4-7.8c-1.9-4.6-5.6-7.5-10.8-8.6C640.3,367.6,640.3,383,640.3,399.3z M601.9,204c-16.1,0-31.8,0-47.3,0
		c0,8.7,0,16.9,0,25.1c16,0,31.5,0,47.3,0C601.9,220.7,601.9,212.6,601.9,204z M602,272.9c-16.4,0-31.9,0-47.5,0
		c0,8.6,0,16.8,0,25.5c15.3,0,30.2,0,45.1-0.1c0.8,0,2.3-1.5,2.3-2.3C602.1,288.3,602,280.7,602,272.9z M602.1,341.8
		c-16.3,0-32,0-48,0c0,7.5,0.1,14.6,0,21.8c0,2.8,1.4,3.9,4,3.9c13.6,0,27.3,0,40.9-0.2c1.1,0,3-2,3-3.2
		C602.2,356.8,602.1,349.5,602.1,341.8z"/>
	<path class="st0" d="M464,231.1c0.7,29.7-3.3,60.9-16.4,90.4c-17.3,39.1-44.2,69.8-80.5,92.3c-12.3,7.6-24.7,15.2-36.9,23
		c-4.3,2.8-7.9,3.1-12.3,0.2c-20.3-13.6-41.8-25.7-60.9-40.8c-41.2-32.4-64.5-75.9-70.7-127.6c-2.9-24-1.6-48.5-2.2-72.8
		c-0.1-4.4,2.4-6.5,6.7-7.2c19.4-3.4,38.4-8.3,56.7-15.5c26-10.2,49.3-24.8,70.4-43c5.6-4.8,6.3-4.9,11.8-0.1
		c35.8,30.9,77.1,49.9,123.7,57.8c9.9,1.7,10.5,2.5,10.5,12.7C464.1,209.9,464,219.4,464,231.1z M451.6,199.6
		c-47.8-7.9-90.5-27.2-127.6-58.8c-37.3,31.7-79.9,50.8-128.6,59c0.9,21.9,0.7,43.6,2.9,65.1c4.8,46.8,25.2,86.1,60.7,117.3
		c19,16.7,41.1,28.9,62.5,42c1.5,0.9,4.9,0.4,6.7-0.7c12.7-7.6,25.3-15.5,37.8-23.4c17.1-10.9,32.2-24.3,44.8-40.2
		c27.1-34.2,40.9-73.1,41-116.9C451.7,228.7,451.6,214.4,451.6,199.6z"/>
	<path class="st1" d="M413.1,89.6c2.5,0,5,0,7.5,0c6.7,0.1,9.6,2.4,10.1,9c0.4,6.1,0.4,12.3,0,18.4c-0.5,6.2-3.5,8.6-9.9,8.6
		c-5.3,0.1-10.6,0.1-16,0c-6.9-0.1-9.6-2.5-10-9.5c-0.3-6.1-0.2-12.3,0.1-18.4c0.3-5.4,3.2-7.9,8.7-8.1
		C406.8,89.5,410,89.6,413.1,89.6C413.1,89.6,413.1,89.6,413.1,89.6z M406.2,114.3c4.7,0,8.9,0,13.4,0c0-4.6,0-9,0-13.4
		c-4.6,0-8.9,0-13.4,0C406.2,105.4,406.2,109.6,406.2,114.3z"/>
	<path class="st1" d="M527.2,285.4c0,2.5,0,5,0,7.5c-0.1,7.1-2.7,10.1-9.7,10.5c-5.5,0.3-11,0.3-16.5,0c-7-0.3-9.8-3.5-9.8-10.4
		c0-5.7-0.1-11.3,0-17c0.1-5.5,2.8-8.4,8.2-8.6c6.5-0.2,13-0.2,19.4,0c5.4,0.2,8,3.1,8.3,8.5c0,0.3,0,0.7,0,1
		C527.2,279.7,527.1,282.5,527.2,285.4C527.2,285.4,527.2,285.4,527.2,285.4z M502.4,278.4c0,4.9,0,9.1,0,13.6c4.6,0,9,0,13.4,0
		c0-4.7,0-9.1,0-13.6C511.2,278.4,506.9,278.4,502.4,278.4z"/>
	<path class="st1" d="M509.1,184.6c-3.3,0-6.7,0.1-10,0c-4.8-0.2-7.8-3.1-7.9-7.9c-0.2-6.5-0.2-13,0-19.5c0.1-5.1,3.3-8.4,8.4-8.6
		c6.3-0.2,12.7-0.2,19,0c5.1,0.2,8.4,3.5,8.5,8.6c0.2,6.3,0.2,12.7,0,19c-0.1,5.3-3.2,8.2-8.5,8.4
		C515.4,184.7,512.3,184.6,509.1,184.6z M515.6,173.5c0-4.9,0-9.2,0-13.5c-4.7,0-8.9,0-13.1,0c0,4.7,0,9.1,0,13.5
		C507.1,173.5,511.2,173.5,515.6,173.5z"/>
	<path class="st1" d="M527.1,107.2c0,3.2,0.1,6.3,0,9.5c-0.2,5.4-3.3,8.6-8.8,8.8c-6.2,0.2-12.3,0.2-18.5,0
		c-5.5-0.1-8.6-3.3-8.7-8.7c-0.1-6.2-0.1-12.3,0-18.5c0.1-5.6,3.2-8.6,8.7-8.7c6-0.1,12-0.1,18,0c6.2,0.1,9.1,3,9.3,9.2
		C527.2,101.6,527.1,104.4,527.1,107.2z M515.7,114.3c0-4.6,0-9,0-13.5c-4.6,0-8.8,0-13.2,0c0,4.6,0,9,0,13.5
		C507.1,114.3,511.3,114.3,515.7,114.3z"/>
	<path class="st1" d="M443.1,107.8c0-3.5-0.1-7,0-10.5c0.2-4.7,3-7.4,7.6-7.6c6.8-0.3,13.7-0.2,20.5,0c4.6,0.2,7.6,3.5,7.8,8.7
		c0.3,6.1,0.3,12.3,0,18.5c-0.3,5.7-3.6,8.6-9.4,8.7c-5.7,0.1-11.3,0.1-17,0c-6.7-0.1-9.4-2.7-9.5-9.3
		C443,113.4,443.1,110.6,443.1,107.8C443.1,107.8,443.1,107.8,443.1,107.8z M454.5,100.8c0,4.8,0,9.2,0,13.3c4.6,0,8.9,0,13.1,0
		c0-4.7,0-8.9,0-13.3C463.1,100.8,459,100.8,454.5,100.8z"/>
	<path class="st1" d="M508.9,243.8c-3.2,0-6.3,0.1-9.5,0c-5.2-0.3-8.1-3-8.2-8c-0.2-6.5-0.2-13,0-19.5c0.2-5.1,3.4-8.2,9.2-8.5
		c5.8-0.3,11.7-0.3,17.5,0c6.3,0.4,9.2,3.7,9.3,9.9c0.1,5.5,0.1,11,0,16.5c-0.1,6.8-2.8,9.5-9.7,9.7
		C514.6,243.9,511.7,243.8,508.9,243.8C508.9,243.8,508.9,243.8,508.9,243.8z M515.7,232.8c0-4.9,0-9.3,0-13.7c-4.6,0-8.9,0-13.2,0
		c0,4.7,0,9.1,0,13.7C507,232.8,511.1,232.8,515.7,232.8z"/>
	<path class="st1" d="M476.9,181.9c-3.5-2.8-6.8-5.4-9.7-7.6c0-4.7,0-9.4,0-14.4c-4.1,0-8.3,0-13,0c0,3.7,0,7.3,0,11.6
		c-4-0.8-7.4-1.5-11.1-2.2c0-4.8-0.4-9.5,0.1-14.1c0.5-4.4,3.9-6.4,8.1-6.5c6.3-0.2,12.6-0.2,19,0c4,0.1,7.6,2,7.9,6.1
		c0.5,8,0.1,16.1,0,24.2C478.2,180,477.3,181,476.9,181.9z"/>
	<path class="st1" d="M430.8,166.4c-4.1-2.3-9.4-0.6-11.4-6c-0.2-0.5-1.8-0.5-2.7-0.7c-6.9-1.7-13.9-3.4-20.8-5
		c-0.1-0.9-0.1-1.8-0.2-2.8c2.8-1.1,5.6-2.8,8.5-3c5.3-0.5,10.6-0.2,15.9-0.1c7.2,0,10,2.5,10.7,9.6
		C431,160.6,430.8,163.1,430.8,166.4z"/>
	<path class="st1" d="M256.9,198c1.5,1.6,4.1,3.4,4.8,5.7c1.1,3.4-1.4,5.6-4.5,6.7c-9.5,3.1-18.9,6.4-28.5,9.1
		c-4.1,1.2-5.9,2.8-6.1,7.3c-2.8,63.2,19.6,114.2,72.6,150.4c8.1,5.5,16.7,10.4,25,15.7c2.7,1.7,4.9,1.7,7.7,0.1
		c22.1-12.7,42.9-26.9,59.7-46.3c0.5-0.6,1.2-1.2,1.8-1.7c2.8-2.3,5.7-3.9,8.8-0.8c3,3.1,2.6,6.4-0.4,9.2
		c-8.5,8.2-16.4,17.2-25.8,24.3c-14.1,10.6-29.1,19.9-44,29.4c-1.8,1.2-5.6,1.5-7.3,0.4c-22.2-13.7-45.1-26.6-63.4-45.8
		c-26.5-27.7-41.6-60.8-45.3-98.8c-1.4-14.4-1.2-28.9-1.5-43.4c-0.2-7.3,0.7-8.2,7.6-10.2c11.2-3.3,22.3-6.5,33.5-9.8
		C252.9,199.1,254.2,198.8,256.9,198z"/>
	<path class="st1" d="M313.5,278.9c1.6-2.1,3-4.4,4.9-6.3c11.6-11.7,23.2-23.4,34.9-35c7.1-7.1,13.1-7.1,20.3-0.1
		c3.7,3.6,7.4,7.2,10.9,11c5.5,5.8,5.5,12.5-0.1,18.2c-22.2,22.3-44.4,44.6-66.7,66.8c-4,4-6.6,4-10.7-0.1
		c-14.5-14.4-29-28.9-43.4-43.5c-5.5-5.6-5.6-11.9-0.3-17.8c3.8-4.2,7.9-8.2,12-12.1c6.4-6,12.6-6,18.9,0.1
		c6,5.8,11.9,11.7,17.8,17.5c0.1,0.1,0.3,0.1,0.5,0.2C312.8,278.2,313.1,278.5,313.5,278.9z M312.1,319.5
		c20.8-20.8,41.7-41.7,61.9-61.9c-3.6-3.8-7.6-8-11.3-11.9c-14.7,14.5-29.4,29.2-44.2,43.9c-4.6,4.5-7.3,4.5-11.9,0.1
		c-3.6-3.5-7.2-7-10.6-10.6c-3.5-3.7-6.9-7.5-9.5-10.4c-5,4.8-9,8.7-12.8,12.3C286.5,293.8,299.5,306.8,312.1,319.5z"/>
	<path class="st1" d="M437.4,237.3c0.6,22.4-2.2,44.2-10.2,65.2c-0.3,0.8-0.6,1.6-0.9,2.3c-1.3,3.3-3.6,5.3-7.3,4.3
		c-4-1.1-5-4.2-4-7.9c2.1-8,4.5-16,6.7-24c4.6-17.5,3.9-35.3,3.7-53.1c0-1.2-2.1-3.1-3.6-3.6c-13.9-4.9-28.1-9.1-41.9-14.5
		c-18.4-7.2-35.3-17.1-51.3-28.6c-3.2-2.3-5.6-2.5-8.9-0.2c-6.1,4.4-12.4,8.3-18.8,12.4c-3.9,2.5-7.9,2-9.6-1.2
		c-2.1-3.9-0.1-6.7,3-8.9c8.2-5.6,16.6-11.1,24.8-16.9c3.3-2.3,6.3-2.4,9.6-0.1c5.8,4,11.7,7.7,17.5,11.6
		c25.5,17.3,53.6,28.5,83.6,35.4c7.2,1.7,7.7,2.4,7.6,9.8C437.4,225.3,437.4,231.3,437.4,237.3z"/>
	<path class="st1" d="M415.2,326.7c-0.4,3.5-2.1,5.9-5.9,6c-3.7,0.1-5.9-2-6.2-5.7c-0.3-3.3,2.8-6.6,6.1-6.4
		C412.9,320.9,414.9,323,415.2,326.7z"/>
	<path class="st1" d="M282.5,195.5c-0.3,3.6-2.1,6-5.8,6c-3.7,0.1-5.9-2.2-6-5.8c-0.1-3.7,2.2-5.9,5.8-6
		C280.1,189.6,282.2,191.8,282.5,195.5z"/>
</g>
</svg>
