<?xml version="1.0" encoding="utf-8"?>
<!-- Generator: Adobe Illustrator 23.0.5, SVG Export Plug-In . SVG Version: 6.00 Build 0)  -->
<svg version="1.1" id="Capa_1" xmlns="http://www.w3.org/2000/svg" xmlns:xlink="http://www.w3.org/1999/xlink" x="0px" y="0px"
	 viewBox="0 0 230.3 383.3" style="enable-background:new 0 0 230.3 383.3;" xml:space="preserve">
<style type="text/css">
	.st0{fill:#FFFFFF;}
	.st1{fill:#D58228;}
</style>
<g>
	<path class="st0" d="M27.6,383.3c-6.9-1.8-13.4-4.5-18.5-9.8c-6.6-7-9.1-15.5-9.1-25C0,297.2,0,246,0,194.7C0,141.4,0,88.2,0,34.9
		C0,27,1.5,19.5,6.4,13.1C13.1,4.2,22.1,0,33.2,0C76,0,118.8,0,161.6,0c11.6,0,23.2,0,34.8,0c20.1,0,33.8,13.6,33.9,33.8
		c0.1,6.9,0,13.7,0,20.6c0,98.1,0,196.1,0,294.2c0,11.6-3.5,21.8-13.4,28.5c-4.2,2.9-9.4,4.3-14.2,6.3
		C144.4,383.3,86,383.3,27.6,383.3z M13.4,51.4c0,93.7,0,187.1,0,280.6c68,0,135.7,0,203.6,0c0-93.6,0-187,0-280.6
		C149.1,51.4,81.4,51.4,13.4,51.4z M216.9,345.3c-67.8,0-135.6,0-203.9,0c0.3,3.8,0,7.4,0.9,10.8c2.3,9.4,9.9,14.4,20.9,14.4
		c53.6,0,107.3,0,160.9,0C210.8,370.5,219.2,360.7,216.9,345.3z M216.9,38c2-15.5-6-25.3-20.6-25.3c-54.1,0-108.3,0-162.4,0
		c-14.5,0-23.1,10.8-20.3,25.3C81.3,38,149,38,216.9,38z"/>
	<path class="st1" d="M216.9,345.3c2.4,15.4-6,25.3-21.2,25.3c-53.6,0-107.3,0-160.9,0c-11,0-18.6-5.1-20.9-14.4
		c-0.8-3.4-0.6-7.1-0.9-10.8C81.3,345.3,149.1,345.3,216.9,345.3z M115.3,351.2c-3.7,0-7.5,0-11.2,0c-0.1,0-0.2,0-0.4,0
		c-4.7,0.2-7.7,2.6-7.8,6.4c-0.1,3.7,2.8,6.5,7.5,6.6c7.8,0.2,15.7,0.2,23.5,0c4.6-0.1,7.6-3,7.4-6.7c-0.2-3.8-3.1-6.2-7.9-6.3
		C122.8,351.2,119.1,351.2,115.3,351.2z"/>
	<path class="st1" d="M216.9,38C149,38,81.3,38,13.6,38c-2.8-14.5,5.8-25.3,20.3-25.3c54.1-0.1,108.3,0,162.4,0
		C210.9,12.8,218.9,22.6,216.9,38z M127.8,32.1c3.9,0,7.7,0.1,11.6,0c4.7-0.1,7.7-2.6,7.8-6.4c0.1-3.7-2.9-6.5-7.5-6.6
		c-7.8-0.1-15.7-0.2-23.5,0c-4.5,0.1-7.3,2.7-7.3,6.3c-0.1,3.8,2.9,6.5,7.5,6.6C120.1,32.2,124,32.1,127.8,32.1z M92.6,32.1
		C92.6,32.1,92.6,32,92.6,32.1c1.1,0,2.3,0.1,3.4-0.1c3.9-0.4,6.5-3.1,6.4-6.5c0-3.3-2.4-5.8-6.2-6.3C94.5,19,92.7,19,91,19
		c-4.9,0.2-8,2.9-7.8,6.7c0.2,3.8,3.2,6.1,7.9,6.3C91.6,32.1,92.1,32.1,92.6,32.1z"/>
	<path class="st0" d="M185.5,229.9c0-8.8,0-16.9,0-25.3c4.2,0,8.3,0,12.5,0c0,12.5,0,25,0,38.1c-8.3,0-16.6,0-25.2,0
		c0,4.4,0,8.4,0,12.6c-10.8,0-21.2,0-32,0c0-6.1,0-12.3,0-18.7c-12.9,0-25.3,0-38.2,0c0-10.8,0-21.3,0-32.1c-4.4,0-8.4,0-12.8,0
		c0-4.3,0-8.4,0-12.6c-6.5,0-12.6,0-19.1,0c0,4,0,8,0,12.3c-4.5,0-8.6,0-12.9,0c0-8.3,0-16.6,0-25c12.7,0,25.2,0,38.2,0
		c0,4.1,0,8.1,0,12.3c4.4,0,8.3,0,12.4,0c0-6.3,0-12.3,0-18.6c-2-0.2-3.8-0.3-5.8-0.5c0-4.2,0-8.2,0-12.6c6.2,0,12.4,0,18.8,0
		c0,10.5,0,20.9,0,31.6c-1.9,0.1-3.9,0.2-6.1,0.3c0,10.5,0,20.9,0,31.7c12.6,0,25.1,0,38,0c0,6.5,0,12.6,0,18.9c2.2,0,4,0,6.3,0
		c0-4,0-8,0-12.4C168.5,229.9,176.8,229.9,185.5,229.9z"/>
	<path class="st0" d="M32.2,172.3c0-21.3,0-42.3,0-63.5c21.2,0,42.3,0,63.7,0c0.1,1.1,0.2,2.1,0.2,3.2c0,19,0,37.9,0,56.9
		c0,2.2-0.1,3.7-3.1,3.7c-19.6-0.1-39.2-0.1-58.8-0.1C33.7,172.6,33.1,172.5,32.2,172.3z M82.9,121.6c-12.9,0-25.3,0-37.9,0
		c0,12.7,0,25.1,0,37.7c12.7,0,25.2,0,37.9,0C82.9,146.7,82.9,134.2,82.9,121.6z"/>
	<path class="st1" d="M134.5,108.7c21.3,0,42.3,0,63.5,0c0,21.2,0,42.3,0,63.7c-1.1,0.1-2.1,0.2-3.2,0.2c-19,0-37.9,0-56.9,0
		c-2.2,0-3.7-0.1-3.7-3.1c0.1-19.6,0.1-39.2,0.1-58.8C134.2,110.2,134.4,109.6,134.5,108.7z M147.5,121.5c0,12.7,0,25.2,0,37.7
		c12.8,0,25.3,0,37.7,0c0-12.8,0-25.2,0-37.7C172.5,121.5,160.1,121.5,147.5,121.5z"/>
	<path class="st1" d="M32.2,274.6c0-21.4,0-42.3,0-63.7c1.3-0.1,2.4-0.2,3.6-0.2c18.8,0,37.7,0,56.5,0c2.4,0,3.9,0.1,3.9,3.3
		c-0.1,19.3-0.1,38.7-0.1,58c0,0.8-0.2,1.7-0.3,2.6C74.6,274.6,53.6,274.6,32.2,274.6z M83,224c-12.9,0-25.4,0-37.9,0
		c0,12.7,0,25.1,0,37.6c12.8,0,25.3,0,37.9,0C83,249,83,236.7,83,224z"/>
	<path class="st0" d="M147.3,274.4c0-4.1,0-8,0-12.3c12.6,0,25.1,0,38.1,0c0-4.4,0-8.5,0-12.7c4.4,0,8.4,0,12.6,0c0,8.2,0,16.5,0,25
		C181.2,274.4,164.4,274.4,147.3,274.4z"/>
	<path class="st0" d="M160.1,179.1c4.2,0,8.2,0,12.6,0c0,1.9,0,3.8,0,5.8c4.3,0,8.2,0,12.5,0c0.1-1.8,0.2-3.7,0.4-5.7
		c4.1,0,8.1,0,12.4,0c0,6.2,0,12.4,0,18.8c-12.6,0-25.1,0-37.9,0C160.1,191.6,160.1,185.5,160.1,179.1z"/>
	<path class="st0" d="M102.6,274.5c0-4.2,0-8.2,0-12.3c12.6,0,25,0,37.8,0c0,4,0,8,0,12.3C127.9,274.5,115.4,274.5,102.6,274.5z"/>
	<path class="st0" d="M109,127.9c4.2,0,8.2,0,12.6,0c0,4.1,0,8,0,12.3c2.2,0.2,4,0.3,6,0.5c0,4,0,8.1,0,12.4c-6,0-12.2,0-18.7,0
		C109,144.9,109,136.5,109,127.9z"/>
	<path class="st0" d="M153.3,185c0,4.6,0,8.7,0,13c-8.4,0-16.7,0-25.2,0c0-6.3,0-12.5,0-18.8c4.1,0,8.1,0,12.4,0
		c0.1,1.9,0.2,3.7,0.3,5.9C145,185,148.9,185,153.3,185z"/>
	<path class="st0" d="M45,198.4c-0.1,2-0.2,3.7-0.3,5.7c-4.1,0-8.1,0-12.4,0c0-8.3,0-16.5,0-25c4.1,0,8.2,0,12.4,0
		c0.1,1.9,0.2,3.6,0.3,5.8c2,0.1,3.9,0.3,6.1,0.4c0,4.1,0,8.2,0,12.6C49.3,198.1,47.4,198.2,45,198.4z"/>
	<path class="st0" d="M134.2,255.4c-10.6,0-21,0-31.6,0c0-4.2,0-8.2,0-12.5c10.5,0,20.9,0,31.6,0C134.2,247,134.2,251.1,134.2,255.4
		z"/>
	<path class="st0" d="M102.6,121.1c0-4.2,0-8.2,0-12.3c8.3,0,16.5,0,25,0c0,4,0,8,0,12.3C119.4,121.1,111.2,121.1,102.6,121.1z"/>
	<path class="st0" d="M172.8,204.7c0,5.5,0,10.8,0,16.1c0,0.8-0.1,1.7-0.2,2.7c-4.1,0-8.1,0-12.7,0c0-3.1,0-6.1,0-9.2
		c0-3.1,0-6.2,0-9.6C164.1,204.7,168.1,204.7,172.8,204.7z"/>
	<path class="st0" d="M134.2,217.1c-4.3,0-8.2,0-12.5,0c0-4.1,0-8.1,0-12.4c4.1,0,8.1,0,12.5,0C134.2,208.7,134.2,212.8,134.2,217.1
		z"/>
	<path class="st0" d="M140.8,216.9c0-4.2,0-8,0-12.2c4.1,0,8.1,0,12.4,0c0,3.9,0,7.9,0,12.2C149.2,216.9,145.2,216.9,140.8,216.9z"
		/>
	<path class="st0" d="M115.3,351.2c3.7,0,7.5-0.1,11.2,0c4.7,0.1,7.7,2.5,7.9,6.3c0.2,3.7-2.8,6.6-7.4,6.7c-7.8,0.2-15.7,0.2-23.5,0
		c-4.7-0.1-7.6-2.9-7.5-6.6c0.1-3.8,3.1-6.2,7.8-6.4c0.1,0,0.2,0,0.4,0C107.9,351.2,111.6,351.2,115.3,351.2z"/>
	<path class="st0" d="M127.8,32.1c-3.9,0-7.7,0.1-11.6,0c-4.6-0.1-7.6-2.8-7.5-6.6c0.1-3.6,2.9-6.3,7.3-6.3c7.8-0.2,15.7-0.2,23.5,0
		c4.7,0.1,7.6,2.9,7.5,6.6c-0.1,3.8-3.1,6.3-7.8,6.4C135.6,32.1,131.7,32.1,127.8,32.1z"/>
	<path class="st0" d="M92.6,32.1c-0.5,0-1,0-1.5,0c-4.7-0.1-7.7-2.5-7.9-6.3C83,21.9,86.1,19.2,91,19c1.7-0.1,3.5-0.1,5.2,0.2
		c3.8,0.5,6.1,3,6.2,6.3c0,3.4-2.6,6.1-6.4,6.5C94.8,32.1,93.7,32,92.6,32.1C92.6,32,92.6,32.1,92.6,32.1z"/>
	<path class="st0" d="M51.4,153.1c8.6,0,17,0,25.3,0c0-8.5,0-16.7,0-25c-8.6,0-16.9,0-25.3,0C51.4,136.6,51.4,144.8,51.4,153.1z"/>
	<path class="st1" d="M51.4,153.1c0-8.3,0-16.5,0-25c8.4,0,16.7,0,25.3,0c0,8.3,0,16.5,0,25C68.4,153.1,60,153.1,51.4,153.1z"/>
	<path class="st0" d="M153.6,127.9c8.4,0,16.7,0,25.3,0c0,8.5,0,16.7,0,25.2c-8.4,0-16.7,0-25.3,0
		C153.6,144.8,153.6,136.5,153.6,127.9z"/>
	<path class="st0" d="M76.6,255.4c-8.3,0-16.5,0-25,0c0-8.4,0-16.7,0-25.3c8.3,0,16.5,0,25,0C76.6,238.4,76.6,246.8,76.6,255.4z"/>
</g>
</svg>
