<?xml version="1.0" encoding="utf-8"?>
<!-- Generator: Adobe Illustrator 23.0.5, SVG Export Plug-In . SVG Version: 6.00 Build 0)  -->
<svg version="1.1" id="Capa_1" xmlns="http://www.w3.org/2000/svg" xmlns:xlink="http://www.w3.org/1999/xlink" x="0px" y="0px"
	 viewBox="0 0 357.8 91.8" style="enable-background:new 0 0 357.8 91.8;" xml:space="preserve">
<style type="text/css">
	.st0{fill:#FFFFFF;}
</style>
<g>
	<path class="st0" d="M73.1,48.1v-1.9c0-0.7,0.6-1.3,1.3-1.3h0c0.7,0,1.3,0.6,1.3,1.3v1.9c0,0.7-0.6,1.3-1.3,1.3h0
		C73.7,49.4,73.1,48.8,73.1,48.1z M73.1,80.5v-26c0-0.7,0.6-1.3,1.3-1.3h0c0.7,0,1.3,0.6,1.3,1.3v26c0,0.7-0.6,1.3-1.3,1.3h0
		C73.7,81.9,73.1,81.3,73.1,80.5z"/>
	<path class="st0" d="M88.3,82.3c-2.5,0-4.2-1-5.2-2.9c-1-1.9-1.5-5-1.5-9.4V65c0-2.7,0.2-5,0.5-6.8c0.4-1.8,1-3.2,2-4.1
		c1-0.9,2.3-1.4,4.1-1.4c1.2,0,2.3,0.3,3.1,0.8c0.4,0.2,0.7,0.5,1,0.7c0.4,0.4,1.1,0.1,1.1-0.5V42.3c0-0.4,0.3-0.6,0.6-0.6h1.3
		c0.4,0,0.6,0.3,0.6,0.6v38.9c0,0.4-0.3,0.6-0.6,0.6H94c-0.4,0-0.6-0.3-0.6-0.6l0,0c0-0.5-0.6-0.8-1.1-0.5c-0.3,0.3-0.6,0.5-1,0.7
		C90.5,82,89.4,82.3,88.3,82.3z M88.6,80.3c1,0,1.8-0.2,2.7-0.7c0.7-0.4,1.4-0.9,1.9-1.5c0.1-0.1,0.2-0.3,0.2-0.4V57.5
		c0-0.2-0.1-0.3-0.2-0.5c-0.5-0.5-1.1-1-1.8-1.4c-0.8-0.6-1.7-0.8-2.8-0.8c-1.8,0-3,0.8-3.6,2.3c-0.6,1.5-0.8,4-0.8,7.3v6
		c0,2.3,0.1,4.2,0.4,5.7c0.2,1.5,0.7,2.6,1.3,3.3C86.5,79.9,87.4,80.3,88.6,80.3z"/>
	<path class="st0" d="M108.4,82.3c-1.5,0-2.8-0.3-3.9-0.9c-1.1-0.6-1.9-1.7-2.5-3.3c-0.6-1.6-0.9-3.9-0.9-6.8v-7.6
		c0-3,0.3-5.3,0.9-6.9c0.6-1.6,1.4-2.6,2.6-3.2c1.1-0.6,2.4-0.8,3.9-0.8c1.8,0,3.2,0.4,4.2,1.1c1,0.8,1.8,2,2.2,3.6
		c0.4,1.7,0.6,3.9,0.6,6.6v1.4c0,0.7-0.6,1.3-1.3,1.3h-9.2c-0.7,0-1.3,0.6-1.3,1.3v3.3c0,2.3,0.2,4.1,0.5,5.4
		c0.3,1.3,0.8,2.2,1.5,2.7c0.7,0.5,1.6,0.8,2.7,0.8c0.7,0,1.4-0.1,2.1-0.3c0.7-0.2,1.3-0.8,1.7-1.6c0.5-0.9,0.7-2.2,0.7-4v-0.8
		c0-0.7,0.6-1.3,1.3-1.3l0,0c0.7,0,1.3,0.6,1.3,1.3v0.6c0,2.4-0.5,4.4-1.5,6C113,81.6,111.2,82.3,108.4,82.3z M105.1,65.3h6.6
		c0.7,0,1.3-0.6,1.3-1.3v-0.9c0-1.7-0.1-3.2-0.3-4.4c-0.2-1.2-0.6-2.2-1.2-2.9c-0.6-0.7-1.6-1-3-1c-1.1,0-1.9,0.2-2.7,0.7
		c-0.7,0.4-1.2,1.3-1.6,2.5c-0.3,1.2-0.5,3-0.5,5.2V64C103.8,64.7,104.4,65.3,105.1,65.3z"/>
	<path class="st0" d="M125.3,82.3c-1.2,0-2.2-0.3-3-0.8c-0.9-0.5-1.5-1.3-2-2.2c-0.5-0.9-0.7-2-0.7-3.3c0-1.2,0.2-2.3,0.5-3.2
		c0.3-0.9,0.9-1.8,1.7-2.6c0.8-0.8,2-1.6,3.5-2.5c1.5-0.8,3.4-1.8,5.7-2.9c0.2-0.1,0.3-0.3,0.3-0.4v-1.7c0-2.1-0.1-3.7-0.4-4.9
		c-0.2-1.2-0.7-2-1.2-2.4c-0.6-0.5-1.4-0.7-2.4-0.7c-0.8,0-1.5,0.1-2.2,0.4c-0.7,0.3-1.3,0.8-1.7,1.6c-0.4,0.8-0.7,1.9-0.7,3.4l0,0
		c0,0.4-0.3,0.7-0.7,0.7l-1.1,0c-0.4,0-0.8-0.4-0.7-0.8c0.1-2.4,0.6-4.1,1.6-5.4c1.1-1.3,3-2,5.6-2c2.4,0,4.1,0.8,5.1,2.3
		c1,1.5,1.4,4,1.4,7.4v14.4c0,0.3,0,0.8,0,1.5c0,0.7,0,1.5,0,2.2c0,0.3,0,0.6,0,0.8c0,0.3-0.2,0.5-0.5,0.5l-1.3,0
		c-0.3,0-0.5-0.2-0.5-0.4c-0.1-0.6-0.1-1.1-0.2-1.7l0,0c-0.1-0.5-0.7-0.6-0.9-0.2c-0.4,0.6-0.9,1.1-1.5,1.6
		C128,81.9,126.8,82.3,125.3,82.3z M126,80.1c0.8,0,1.6-0.2,2.2-0.6c0.7-0.4,1.3-0.9,1.8-1.5c0.5-0.6,0.9-1.2,1.2-1.9
		c0-0.1,0.1-0.1,0.1-0.2v-8.5c0-0.4-0.4-0.6-0.7-0.4c-1.4,0.8-2.7,1.4-3.7,2c-1.2,0.7-2.1,1.3-2.8,1.9c-0.7,0.6-1.2,1.3-1.5,2
		c-0.3,0.7-0.4,1.6-0.4,2.7c0,1.7,0.4,2.9,1.2,3.5C124.2,79.8,125,80.1,126,80.1z"/>
	<path class="st0" d="M145.8,82.3c-2.3,0-4-0.7-5.4-2.2c-1.2-1.3-1.9-3-2.2-5.1c-0.1-0.5,0.2-0.9,0.7-1.1l0.3-0.1
		c0.6-0.2,1.2,0.2,1.2,0.8c0.2,1.8,0.8,3.2,1.5,4.1c0.9,1.1,2.2,1.6,3.8,1.6c1.5,0,2.6-0.4,3.4-1.2c0.8-0.8,1.2-2,1.2-3.4
		c0-1-0.3-2.1-1-3.2c-0.7-1.1-1.7-2.3-3.2-3.5l-3.3-2.8c-1.4-1.2-2.5-2.4-3.1-3.5c-0.7-1.1-1-2.4-1-3.8c0-1.3,0.3-2.4,0.8-3.3
		c0.5-0.9,1.3-1.6,2.3-2.1c1-0.5,2.1-0.7,3.4-0.7c2.2,0,3.8,0.7,4.8,2c0.9,1.2,1.5,2.8,1.6,4.7c0,0.5-0.3,0.9-0.7,1l0,0
		c-0.6,0.2-1.2-0.2-1.3-0.8c-0.1-0.9-0.3-1.7-0.5-2.4c-0.4-0.9-0.9-1.5-1.5-1.9c-0.6-0.4-1.4-0.6-2.3-0.6c-1.3,0-2.3,0.3-3.1,1
		c-0.8,0.6-1.2,1.6-1.2,2.9c0,1.1,0.2,2,0.6,2.8c0.4,0.8,1.2,1.7,2.3,2.7l3.4,3c0.9,0.7,1.7,1.5,2.5,2.3c0.8,0.8,1.4,1.7,2,2.8
		c0.5,1,0.8,2.2,0.8,3.6c0,1.4-0.3,2.6-0.9,3.5c-0.6,1-1.4,1.7-2.4,2.3C148.5,82.1,147.2,82.3,145.8,82.3z"/>
	<path class="st0" d="M156.7,45.5L156.7,45.5c0-1.5,1.3-2.8,2.8-2.8h2.5c1.5,0,2.8,1.3,2.8,2.8v0c0,1.5-1.3,2.8-2.8,2.8h-2.5
		C158,48.3,156.7,47.1,156.7,45.5z M156.7,79.1V56c0-1.5,1.3-2.8,2.8-2.8h2.5c1.5,0,2.8,1.3,2.8,2.8v23.1c0,1.5-1.3,2.8-2.8,2.8
		h-2.5C158,81.9,156.7,80.6,156.7,79.1z"/>
	<path class="st0" d="M169.9,81V54.1c0-0.5,0.4-0.9,0.9-0.9h6.3c0.5,0,0.9,0.4,0.9,0.9v0c0,0.7,0.9,1.2,1.4,0.7
		c0.6-0.5,1.2-0.9,1.9-1.2c1.1-0.6,2.3-0.9,3.6-0.9c1.2,0,2.2,0.3,3,0.9c0.8,0.6,1.4,1.4,1.8,2.4c0.4,1,0.6,2.2,0.6,3.5V81
		c0,0.5-0.4,0.9-0.9,0.9H183c-0.5,0-0.9-0.4-0.9-0.9V60.5c0-0.7-0.1-1.2-0.3-1.6c-0.2-0.4-0.7-0.5-1.3-0.5c-0.3,0-0.7,0.1-1.2,0.3
		c-0.3,0.1-0.6,0.3-0.9,0.5c-0.3,0.2-0.4,0.5-0.4,0.8V81c0,0.5-0.4,0.9-0.9,0.9h-6.3C170.3,81.9,169.9,81.5,169.9,81z"/>
	<path class="st0" d="M203.9,82.2c-2.2,0-3.8-0.3-5-0.9c-1.2-0.6-2-1.5-2.4-2.8c-0.4-1.2-0.6-2.7-0.6-4.4V59.4
		c0-0.5-0.4-0.9-0.9-0.9h-1c-0.5,0-0.9-0.4-0.9-0.9v-3.6c0-0.5,0.4-0.9,0.9-0.9h1c0.5,0,0.9-0.4,0.9-0.9v-7c0-0.5,0.4-0.9,0.9-0.9
		h6.5c0.5,0,0.9,0.4,0.9,0.9v7c0,0.5,0.4,0.9,0.9,0.9h2.3c0.5,0,0.9,0.4,0.9,0.9v3.6c0,0.5-0.4,0.9-0.9,0.9h-2.3
		c-0.5,0-0.9,0.4-0.9,0.9v13.9c0,0.8,0.2,1.4,0.7,1.8c0.5,0.4,1.1,0.5,1.8,0.5c0.4,0,0.8,0,1.2-0.1c0,0,0,0,0,0c0.5-0.1,1,0.3,1,0.9
		V81c0,0.4-0.3,0.8-0.8,0.9c-0.4,0-0.8,0.1-1.3,0.1C205.8,82.1,204.9,82.2,203.9,82.2z"/>
	<path class="st0" d="M222,82.4c-2.1,0-3.9-0.4-5.4-1.1c-1.5-0.7-2.6-1.8-3.4-3.3c-0.8-1.4-1.2-3.2-1.2-5.2V62.3
		c0-2.1,0.4-3.8,1.2-5.2c0.8-1.4,1.9-2.5,3.4-3.3c1.5-0.7,3.3-1.1,5.3-1.1c2.1,0,3.9,0.4,5.3,1.1c1.4,0.7,2.5,1.8,3.2,3.2
		c0.7,1.4,1.1,3.2,1.1,5.3v4.4c0,0.7-0.6,1.3-1.3,1.3h-8.9c-0.7,0-1.3,0.6-1.3,1.3v4.2c0,0.7,0.1,1.3,0.2,1.8c0.2,0.5,0.4,0.8,0.7,1
		c0.3,0.2,0.6,0.3,1,0.3s0.8-0.1,1.1-0.3c0.3-0.2,0.6-0.5,0.7-0.9c0.2-0.4,0.3-0.9,0.3-1.6v-1.7c0-0.7,0.6-1.3,1.3-1.3h4.8
		c0.7,0,1.3,0.6,1.3,1.3v1.5c0,2.9-0.8,5.1-2.5,6.6C227.3,81.6,225,82.4,222,82.4z M221.3,64.3h1.4c0.7,0,1.3-0.6,1.3-1.3v-1.6
		c0-0.8-0.1-1.4-0.3-1.8c-0.2-0.4-0.4-0.7-0.7-0.9c-0.3-0.2-0.7-0.2-1.1-0.2c-0.4,0-0.7,0.1-1,0.3c-0.3,0.2-0.5,0.5-0.7,1
		c-0.2,0.5-0.2,1.2-0.2,2.1v1.1C220,63.7,220.6,64.3,221.3,64.3z"/>
	<path class="st0" d="M245.3,91.8c-2.2,0-4-0.2-5.6-0.6c-1.6-0.4-2.8-1.1-3.7-1.9c-0.9-0.9-1.3-2-1.3-3.3c0-0.9,0.2-1.7,0.6-2.4
		c0.4-0.7,0.9-1.3,1.6-1.9c0.1-0.1,0.3-0.2,0.4-0.3c0.7-0.5,0.7-1.5,0-1.9c-0.4-0.2-0.7-0.5-1-0.8c-0.7-0.7-1-1.7-1-2.9
		c0-1.2,0.3-2.2,0.8-3c0.4-0.6,0.9-1.2,1.5-1.8c0.4-0.4,0.4-1.1,0.1-1.6c-0.6-0.7-1-1.4-1.3-2.2c-0.5-1.2-0.7-2.7-0.7-4.4
		c0-2.2,0.4-4,1.2-5.5c0.8-1.5,2-2.6,3.5-3.4c1.5-0.8,3.4-1.1,5.6-1.1c1.5,0,2.8,0.2,3.9,0.5c0.7,0.2,1.4,0.6,2,1
		c0.5,0.3,1.1,0.3,1.5-0.2c0.2-0.3,0.5-0.5,0.8-0.8c0.6-0.5,1.3-1,2-1.3l0,0c0.6-0.3,1.3,0,1.5,0.5l0.8,1.7c0.3,0.6,0,1.3-0.6,1.6
		c0,0-0.1,0-0.1,0c-0.5,0.2-1.1,0.5-1.7,0.7c-0.2,0.1-0.4,0.2-0.6,0.3c-0.5,0.3-0.8,0.9-0.6,1.4c0.2,0.5,0.3,1,0.4,1.6
		c0.2,0.9,0.3,1.9,0.3,2.9c0,2.1-0.4,3.8-1.1,5.3c-0.7,1.5-1.8,2.6-3.3,3.4c-1.5,0.8-3.3,1.2-5.5,1.2c-0.9,0-1.8-0.1-2.6-0.2
		c-0.5-0.1-1-0.2-1.5-0.3c-0.5-0.1-1.1,0.1-1.3,0.5c0,0,0,0,0,0c-0.1,0.3-0.2,0.6-0.2,0.9c0,0.4,0.2,0.7,0.6,0.9
		c0.4,0.2,1.1,0.4,2.1,0.5l7.5,0.8c2.4,0.3,4.3,1.1,5.4,2.4c1.2,1.3,1.7,3,1.7,5.1c0,1.8-0.4,3.4-1.2,4.6c-0.8,1.3-2.1,2.2-3.9,2.9
		C250.6,91.5,248.2,91.8,245.3,91.8z M246.3,86c1.8,0,3.2-0.1,4.2-0.4c1-0.3,1.5-0.9,1.5-1.8c0-0.5-0.1-0.8-0.4-1.1
		c-0.3-0.3-0.7-0.5-1.3-0.7c-0.6-0.2-1.5-0.3-2.6-0.4l-4.8-0.5c-0.3,0-0.6,0.1-0.9,0.3c-0.2,0.1-0.3,0.3-0.5,0.5
		c-0.2,0.3-0.4,0.6-0.6,0.9c-0.1,0.3-0.2,0.7-0.2,1c0,0.8,0.4,1.4,1.3,1.8C242.8,85.8,244.2,86,246.3,86z M245.8,67.8
		c0.5,0,0.8-0.1,1.1-0.3c0.3-0.2,0.5-0.5,0.7-0.9c0.1-0.4,0.3-0.9,0.3-1.6c0.1-0.7,0.1-1.5,0.1-2.4c0-1,0-1.8-0.1-2.4
		c-0.1-0.6-0.2-1.2-0.3-1.6c-0.1-0.4-0.4-0.7-0.7-0.9c-0.3-0.2-0.7-0.3-1.1-0.3c-0.5,0-0.8,0.1-1.1,0.3c-0.3,0.2-0.5,0.5-0.7,0.9
		c-0.1,0.4-0.3,0.9-0.3,1.6c-0.1,0.7-0.1,1.5-0.1,2.4c0,0.9,0,1.7,0.1,2.4c0.1,0.6,0.2,1.2,0.3,1.6c0.1,0.4,0.4,0.7,0.7,0.9
		C244.9,67.7,245.3,67.8,245.8,67.8z"/>
	<path class="st0" d="M260.9,78.5V53.8c0-0.3,0.3-0.6,0.6-0.6h6.9c0.3,0,0.6,0.3,0.6,0.6v2c0,0.6,0.8,0.9,1.1,0.4
		c0.6-0.8,1.1-1.5,1.7-2c0.9-0.9,2.1-1.3,3.4-1.3c0.3,0,0.5,0,0.7,0l0,0c0.3,0,0.5,0.3,0.5,0.6v6.7c0,0.4-0.4,0.7-0.8,0.6
		c-0.1,0-0.3-0.1-0.4-0.1c-0.4-0.1-0.9-0.2-1.4-0.2c-0.9,0-1.8,0.2-2.6,0.7c-0.7,0.5-1.4,1.1-2,1.9c-0.1,0.1-0.1,0.3-0.1,0.4v15.1
		c0,1.9-1.5,3.4-3.4,3.4h-1.4C262.4,81.9,260.9,80.4,260.9,78.5z"/>
	<path class="st0" d="M285.6,82.4c-1.5,0-2.7-0.3-3.7-1c-1-0.7-1.7-1.6-2.2-2.7c-0.5-1.1-0.7-2.2-0.7-3.3c0-1.8,0.4-3.3,1.1-4.5
		c0.7-1.2,1.6-2.3,2.8-3.1c1.2-0.8,2.4-1.5,3.8-2.1c1.3-0.5,2.6-1,3.8-1.5c0.2-0.1,0.3-0.2,0.3-0.4v-2.6c0-0.5,0-0.9-0.1-1.3
		c-0.1-0.4-0.3-0.7-0.5-0.9c-0.2-0.2-0.6-0.3-1-0.3c-0.5,0-0.8,0.1-1.1,0.3c-0.2,0.2-0.4,0.5-0.5,0.8c-0.1,0.3-0.2,0.7-0.2,1.2
		l0,0.3c-0.1,1-1,1.8-2,1.7l-4.1-0.2c-0.9,0-1.6-0.9-1.5-1.8c0.4-2.6,1.2-4.5,2.6-5.9c1.7-1.6,4.2-2.5,7.5-2.5
		c2.9,0,5.1,0.8,6.5,2.4c1.4,1.6,2.2,3.7,2.2,6.2v13.4c0,1.2,0,2.2,0.1,3.1c0,0.9,0.1,1.7,0.2,2.3l0,0c0.1,0.9-0.6,1.7-1.5,1.7
		l-5.1,0c-0.2,0-0.4-0.2-0.5-0.4c-0.1-0.6-0.2-1.3-0.3-2.1l0,0c-0.1-0.4-0.7-0.5-0.9-0.1c-0.3,0.6-0.8,1.2-1.3,1.7
		C288.3,81.9,287.1,82.4,285.6,82.4z M288.4,76.9c0.3,0,0.6-0.1,0.9-0.2c0.3-0.1,0.5-0.3,0.8-0.5c0.2-0.2,0.4-0.4,0.5-0.6
		c0.1-0.1,0.1-0.2,0.1-0.3v-6.9c0-0.4-0.4-0.6-0.7-0.4c-0.4,0.3-0.8,0.5-1.1,0.8c-0.6,0.4-1,0.9-1.4,1.4c-0.4,0.5-0.7,1-0.9,1.6
		c-0.2,0.6-0.3,1.2-0.3,2c0,1,0.2,1.7,0.6,2.3C287.2,76.6,287.8,76.9,288.4,76.9z"/>
	<path class="st0" d="M303.6,77.9V45.7c0-2.2,1.8-4,4-4l0,0c2.2,0,4,1.8,4,4v32.2c0,2.2-1.8,4-4,4l0,0
		C305.4,81.9,303.6,80.1,303.6,77.9z"/>
	<path class="st0" d="M326.3,82.4c-2.1,0-3.9-0.4-5.4-1.1c-1.5-0.7-2.6-1.8-3.4-3.3c-0.8-1.4-1.2-3.2-1.2-5.2V62.3
		c0-2.1,0.4-3.8,1.2-5.2c0.8-1.4,1.9-2.5,3.4-3.3c1.5-0.7,3.3-1.1,5.3-1.1c2.1,0,3.9,0.4,5.3,1.1c1.4,0.7,2.5,1.8,3.2,3.2
		c0.7,1.4,1.1,3.2,1.1,5.3v4.4c0,0.8-0.6,1.4-1.4,1.4h-8.8c-0.8,0-1.4,0.6-1.4,1.4v4.1c0,0.7,0.1,1.3,0.2,1.8c0.2,0.5,0.4,0.8,0.7,1
		s0.6,0.3,1,0.3c0.4,0,0.8-0.1,1.1-0.3c0.3-0.2,0.6-0.5,0.7-0.9c0.2-0.4,0.3-0.9,0.3-1.6v-1.7c0-0.8,0.6-1.4,1.4-1.4h4.7
		c0.8,0,1.4,0.6,1.4,1.4v1.4c0,2.9-0.8,5.1-2.5,6.6C331.6,81.6,329.3,82.4,326.3,82.4z M325.7,64.3h1.3c0.8,0,1.4-0.6,1.4-1.4v-1.5
		c0-0.8-0.1-1.4-0.3-1.8c-0.2-0.4-0.4-0.7-0.7-0.9c-0.3-0.2-0.7-0.2-1.1-0.2c-0.4,0-0.7,0.1-1,0.3c-0.3,0.2-0.5,0.5-0.7,1
		c-0.2,0.5-0.2,1.2-0.2,2.1v1.1C324.3,63.6,324.9,64.3,325.7,64.3z"/>
	<path class="st0" d="M349.1,82.4c-2.5,0-4.6-0.6-6.3-1.7c-1.1-0.8-2.1-1.8-3-3.3c-0.7-1.2-0.2-2.7,1-3.2l1.4-0.6
		c1-0.5,2.3-0.1,2.8,0.9c0.3,0.5,0.6,0.9,1,1.3c0.7,0.7,1.5,1.1,2.4,1.1c0.6,0,1.1-0.1,1.4-0.4c0.3-0.3,0.5-0.6,0.5-1.1
		c0-0.8-0.3-1.5-0.9-2.1c-0.6-0.6-1.6-1.6-3.1-2.8l-2.1-1.7c-1.5-1.3-2.7-2.5-3.6-3.7c-0.9-1.2-1.3-2.7-1.3-4.5
		c0-1.6,0.4-2.9,1.2-4.1c0.8-1.2,1.9-2.1,3.3-2.8c1.4-0.7,2.8-1,4.4-1c2.3,0,4.3,0.6,5.9,1.9c1.1,0.9,1.9,2,2.6,3.3
		c0.5,1.1,0,2.5-1.1,3l-1.3,0.6c-1.1,0.5-2.3,0.1-2.9-0.9c0,0,0,0,0,0c-0.4-0.6-0.8-1.2-1.3-1.6c-0.5-0.4-1.1-0.6-1.7-0.6
		c-0.5,0-1,0.1-1.3,0.4c-0.3,0.3-0.5,0.7-0.5,1.2c0,0.6,0.4,1.3,1.1,2c0.7,0.7,1.7,1.6,3,2.6l2,1.8c0.8,0.7,1.6,1.4,2.4,2.2
		c0.8,0.8,1.4,1.7,2,2.6c0.5,1,0.8,2.1,0.8,3.3c0,1.7-0.4,3.1-1.2,4.2c-0.8,1.2-1.9,2.1-3.3,2.7C352,82.1,350.6,82.4,349.1,82.4z"/>
</g>
<g>
	<path class="st0" d="M11.5,40.9c0.2,1.2,0.6,2.2,1.3,2.9c0.6,0.8,5.3,4.1,12,4.1c5.8,0,9.4-3.4,10-4.1c0.6-0.8,1-1.7,1.2-2.9
		c0.2-1.2,0.3-2.4,0.3-3.6l0,0c0-1.2,0.9-2.1,2.1-2.1H49v0.2c0,4.1-0.5,7.5-1.5,10.3c-1,2.8-2.8,4.9-5.3,6.4
		c-2.5,1.5-8.1,5.2-17.4,5.2c-9.7,0-16.9-3.7-19.5-5.2C2.8,50.7,1,48.5,0,45.7"/>
</g>
<g>
	<path class="st0" d="M35.1,9.9L35.1,9.9c-0.9-4.3,1.8-8.5,6.1-9.4l1.7-0.4c2.7-0.6,5.5,1.2,6,3.9v0c0.6,2.7-1.2,5.5-3.9,6l-7.2,1.6
		C36.5,11.9,35.3,11.1,35.1,9.9z M34.4,80.5V24.1c0-5.3,4.3-9.6,9.6-9.6h0c2.8,0,5.1,2.3,5.1,5.1V76c0,5.3-4.3,9.6-9.6,9.6h0
		C36.7,85.6,34.4,83.3,34.4,80.5z"/>
</g>
<g>
	<path class="st0" d="M0.1,23.4L0.1,23.4c0.3-2.8,2.9-4.8,5.6-4.5l2.4,0.3c4,0.5,6.9,4.1,6.4,8.1l0,0c-0.2,1.6-1.6,2.7-3.2,2.5
		l-6.8-0.8C1.8,28.8-0.2,26.2,0.1,23.4z M0.1,75.7l0-37.4c0-2.8,2.3-5.1,5.1-5.1h0c5.3,0,9.6,4.3,9.6,9.6v37.4
		c0,2.8-2.3,5.1-5.1,5.1h0C4.4,85.3,0.1,81,0.1,75.7z"/>
</g>
</svg>
